# xmcd
#
# Track frame offsets: 
#        150
#        23177
#        37579
#        61914
#        92781
#        108694
#        119962
#        137029
#        155409
#        178953
#        199250
#
# Disc length: 2805 seconds
#
# Revision: 2
# Processed by: cddbd v1.5.2PL0 Copyright (c) Steve Scherf et al.
# Submitted via: ExactAudioCopy v0.99pb4
#
DISCID=9d0af30b
DTITLE=Various Artist - ANTI-Spring Sampler 2003
DYEAR=2003
DGENRE=Jazz
TTITLE0=Muggs - Rain
TTITLE1=Muggs - Morta
TTITLE2=Nick Cave and The Bad Seeds - Bring It On
TTITLE3=Nick Cave and The Bad Seeds - Wonderful Life
TTITLE4=Daniel Lanois - Shine
TTITLE5=Daniel Lanois - Sometimes
TTITLE6=Solomon Burke - Don't Give Up On Me
TTITLE7=The Black Keys - Midnight In Her Eyes
TTITLE8=Joe Henry - Lighthouse
TTITLE9=Tom Waits - Alice
TTITLE10=Tom Waits - Another Man's Vine
EXTD=YEAR: 2003
EXTT0=
EXTT1=
EXTT2=
EXTT3=
EXTT4=
EXTT5=
EXTT6=
EXTT7=
EXTT8=
EXTT9=
EXTT10=
PLAYORDER=
